<svg width="1916" height="722" viewBox="0 0 1916 722" fill="none" xmlns="http://www.w3.org/2000/svg">
<path d="M129.826 90.0209C17.8191 94.0593 -5.97814 119.747 -3.87591 132.087L-3.87591 722L1915.88 722V132.087C1917.98 119.747 1894.18 94.0593 1782.17 90.0209C1642.17 84.9731 1645.95 67.3054 1624.51 53.003C1603.06 38.7006 1569.01 24.3982 1449.18 35.756C1329.36 47.1138 1212.05 50.8997 1122.5 23.9775C1050.85 2.43982 981.5 0 956 0C930.5 0 861.148 2.43982 789.504 23.9775C699.949 50.8997 582.645 47.1138 462.818 35.756C342.991 24.3982 308.935 38.7006 287.492 53.003C266.05 67.3054 269.834 84.9731 129.826 90.0209Z" fill="#932E52"/>
</svg>
