<?xml version="1.0" encoding="utf-8"?>
<!-- Generator: Adobe Illustrator 27.0.0, SVG Export Plug-In . SVG Version: 6.00 Build 0)  -->
<svg version="1.1" id="Layer_1" xmlns="http://www.w3.org/2000/svg" xmlns:xlink="http://www.w3.org/1999/xlink" x="0px" y="0px"
	 viewBox="0 0 631.89 399.28" style="enable-background:new 0 0 631.89 399.28;" xml:space="preserve">
<style type="text/css">
	.st0{fill:#FFFFFF;}
	.st1{fill:#892A51;}
</style>
<g>
	<g>
		<g>
			<path class="st0" d="M147.53,224.62h2.67l10.17,23.94h-3.31l-2.43-5.88h-11.96l-2.47,5.88h-3.21L147.53,224.62z M148.81,228.27
				h-0.07l-4.97,11.76h9.77L148.81,228.27z"/>
			<path class="st0" d="M179.61,245.75h-0.07c-0.49,0.9-1.28,1.66-2.35,2.28c-1.07,0.62-2.31,0.93-3.73,0.93
				c-1.11,0-2.14-0.21-3.11-0.63c-0.97-0.42-1.81-1-2.52-1.74c-0.71-0.74-1.27-1.62-1.67-2.64c-0.41-1.01-0.61-2.12-0.61-3.31
				s0.2-2.3,0.61-3.31c0.4-1.01,0.97-1.89,1.69-2.64c0.72-0.74,1.59-1.32,2.62-1.74c1.02-0.42,2.16-0.63,3.4-0.63
				c1.15,0,2.2,0.24,3.16,0.71c0.96,0.47,1.8,1.14,2.52,1.99h0.07V223h2.64v25.56h-2.64V245.75z M179.61,240.65
				c0-0.83-0.13-1.61-0.39-2.32c-0.26-0.71-0.64-1.33-1.13-1.86c-0.5-0.53-1.09-0.95-1.78-1.25c-0.69-0.3-1.46-0.46-2.32-0.46
				c-0.86,0-1.63,0.15-2.32,0.46c-0.69,0.31-1.28,0.72-1.77,1.25c-0.5,0.53-0.87,1.15-1.13,1.86c-0.26,0.71-0.39,1.48-0.39,2.32
				c0,0.83,0.13,1.61,0.39,2.31c0.26,0.71,0.63,1.33,1.13,1.86c0.49,0.53,1.09,0.95,1.77,1.25c0.69,0.31,1.46,0.46,2.32,0.46
				c0.86,0,1.63-0.15,2.32-0.46c0.69-0.3,1.28-0.72,1.78-1.25c0.49-0.53,0.87-1.15,1.13-1.86
				C179.48,242.25,179.61,241.48,179.61,240.65z"/>
			<path class="st0" d="M197.69,248.56h-2.91l-6.46-15.82h3.08l4.93,12.41h0.07l4.7-12.41h2.84L197.69,248.56z"/>
			<path class="st0" d="M224.3,245.68c-0.95,1.22-1.99,2.07-3.11,2.55c-1.13,0.49-2.43,0.73-3.92,0.73c-1.24,0-2.35-0.22-3.35-0.66
				c-0.99-0.44-1.83-1.03-2.52-1.77c-0.69-0.74-1.21-1.62-1.59-2.64c-0.37-1.01-0.56-2.1-0.56-3.25c0-1.22,0.2-2.34,0.61-3.36
				c0.4-1.03,0.97-1.91,1.69-2.64c0.72-0.73,1.58-1.3,2.57-1.71c0.99-0.41,2.07-0.61,3.25-0.61c1.1,0,2.12,0.19,3.04,0.56
				c0.92,0.37,1.72,0.91,2.38,1.62c0.66,0.71,1.18,1.58,1.54,2.6c0.36,1.03,0.54,2.19,0.54,3.5v0.85H212.1
				c0.05,0.68,0.21,1.33,0.49,1.94c0.28,0.62,0.65,1.16,1.1,1.62c0.45,0.46,0.98,0.83,1.59,1.1c0.61,0.27,1.27,0.41,1.99,0.41
				c1.15,0,2.12-0.2,2.91-0.61c0.79-0.41,1.5-1,2.13-1.79L224.3,245.68z M222.04,239.23c-0.05-1.35-0.49-2.43-1.32-3.25
				c-0.83-0.81-1.98-1.22-3.45-1.22c-1.46,0-2.65,0.41-3.55,1.22c-0.9,0.81-1.44,1.89-1.62,3.25H222.04z"/>
			<path class="st0" d="M232.34,236.49c0-0.72-0.02-1.4-0.07-2.03c-0.05-0.63-0.07-1.21-0.07-1.72h2.5c0,0.43,0.01,0.86,0.04,1.29
				c0.02,0.43,0.03,0.87,0.03,1.32h0.07c0.18-0.38,0.43-0.75,0.76-1.12c0.32-0.36,0.71-0.68,1.17-0.96
				c0.45-0.28,0.96-0.51,1.52-0.68c0.56-0.17,1.17-0.25,1.82-0.25c0.18,0,0.36,0.01,0.54,0.03c0.18,0.02,0.36,0.07,0.54,0.13
				l-0.17,2.67c-0.45-0.14-0.93-0.2-1.42-0.2c-1.62,0-2.8,0.52-3.53,1.57c-0.73,1.05-1.1,2.48-1.1,4.31v7.71h-2.64V236.49z"/>
			<path class="st0" d="M256.28,234.97h-4.67v7.91c0,0.52,0.01,1,0.03,1.44c0.02,0.44,0.11,0.82,0.27,1.15
				c0.16,0.33,0.39,0.59,0.71,0.78c0.32,0.19,0.77,0.29,1.35,0.29c0.39,0,0.78-0.05,1.18-0.13c0.41-0.09,0.79-0.23,1.15-0.41
				l0.1,2.4c-0.45,0.2-0.95,0.35-1.5,0.44c-0.55,0.09-1.08,0.13-1.57,0.13c-0.95,0-1.7-0.12-2.26-0.37c-0.56-0.25-1-0.6-1.32-1.05
				c-0.32-0.45-0.53-1.01-0.63-1.67c-0.1-0.66-0.15-1.4-0.15-2.21v-8.69h-3.45v-2.23h3.45v-4.5h2.64v4.5h4.67V234.97z"/>
			<path class="st0" d="M262.57,226.55c0-0.52,0.18-0.97,0.56-1.35c0.37-0.38,0.83-0.58,1.37-0.58c0.54,0,1,0.19,1.37,0.58
				c0.37,0.38,0.56,0.83,0.56,1.35c0,0.56-0.18,1.03-0.54,1.39c-0.36,0.36-0.82,0.54-1.39,0.54c-0.56,0-1.03-0.18-1.38-0.54
				C262.75,227.58,262.57,227.11,262.57,226.55z M263.17,232.73h2.64v15.82h-2.64V232.73z"/>
			<path class="st0" d="M274.77,244.4c0.52,0.65,1.09,1.17,1.71,1.55c0.62,0.38,1.4,0.58,2.35,0.58c0.4,0,0.82-0.05,1.23-0.13
				c0.42-0.09,0.8-0.24,1.13-0.44c0.34-0.2,0.61-0.46,0.81-0.76c0.2-0.3,0.31-0.67,0.31-1.1s-0.1-0.78-0.29-1.05
				c-0.19-0.27-0.45-0.5-0.76-0.69c-0.32-0.19-0.67-0.34-1.08-0.46c-0.41-0.11-0.82-0.21-1.25-0.31c-0.74-0.16-1.45-0.34-2.13-0.54
				c-0.67-0.2-1.27-0.47-1.77-0.79c-0.51-0.33-0.91-0.75-1.22-1.27c-0.3-0.52-0.46-1.18-0.46-1.99c0-0.77,0.17-1.44,0.51-2.03
				c0.34-0.59,0.79-1.07,1.35-1.45c0.56-0.38,1.2-0.68,1.89-0.88c0.7-0.2,1.42-0.31,2.16-0.31c1.13,0,2.17,0.23,3.13,0.68
				c0.96,0.45,1.71,1.18,2.25,2.2l-2.2,1.45c-0.34-0.56-0.78-1.02-1.34-1.37c-0.55-0.35-1.22-0.52-2.01-0.52
				c-0.36,0-0.73,0.05-1.1,0.14c-0.37,0.09-0.7,0.22-1,0.41c-0.29,0.18-0.53,0.41-0.73,0.69c-0.19,0.28-0.29,0.6-0.29,0.96
				c0,0.34,0.11,0.63,0.32,0.86c0.21,0.24,0.51,0.44,0.88,0.63c0.37,0.18,0.8,0.34,1.28,0.47c0.48,0.14,0.98,0.25,1.5,0.34
				c0.7,0.14,1.36,0.31,1.99,0.52c0.63,0.21,1.18,0.5,1.66,0.86c0.47,0.36,0.84,0.81,1.11,1.35c0.27,0.54,0.41,1.21,0.41,1.99
				c0,0.9-0.18,1.67-0.54,2.3c-0.36,0.63-0.84,1.14-1.44,1.54c-0.6,0.39-1.27,0.68-2.03,0.86c-0.75,0.18-1.53,0.27-2.31,0.27
				c-1.35,0-2.52-0.21-3.5-0.63c-0.98-0.42-1.86-1.19-2.65-2.32L274.77,244.4z"/>
			<path class="st0" d="M291.84,226.55c0-0.52,0.18-0.97,0.56-1.35c0.37-0.38,0.83-0.58,1.37-0.58c0.54,0,1,0.19,1.37,0.58
				c0.37,0.38,0.56,0.83,0.56,1.35c0,0.56-0.18,1.03-0.54,1.39c-0.36,0.36-0.82,0.54-1.39,0.54c-0.56,0-1.03-0.18-1.38-0.54
				C292.02,227.58,291.84,227.11,291.84,226.55z M292.45,232.73h2.64v15.82h-2.64V232.73z"/>
			<path class="st0" d="M303.71,236.49c0-0.72-0.02-1.4-0.07-2.03c-0.05-0.63-0.07-1.21-0.07-1.72h2.5c0,0.43,0.01,0.86,0.04,1.29
				c0.02,0.43,0.03,0.87,0.03,1.32h0.07c0.18-0.38,0.43-0.75,0.76-1.12c0.32-0.36,0.71-0.68,1.17-0.96
				c0.45-0.28,0.96-0.51,1.52-0.68c0.56-0.17,1.17-0.25,1.82-0.25c1.04,0,1.93,0.16,2.69,0.47c0.76,0.32,1.38,0.75,1.88,1.32
				c0.5,0.56,0.86,1.25,1.1,2.05c0.24,0.8,0.36,1.67,0.36,2.62v9.77h-2.64v-9.5c0-1.33-0.29-2.38-0.88-3.14
				c-0.59-0.77-1.5-1.15-2.74-1.15c-0.86,0-1.59,0.15-2.21,0.44c-0.62,0.29-1.13,0.71-1.52,1.25c-0.39,0.54-0.69,1.18-0.88,1.93
				c-0.19,0.74-0.29,1.57-0.29,2.47v7.71h-2.64V236.49z"/>
			<path class="st0" d="M341.67,247.85c0,2.89-0.74,5.08-2.21,6.58c-1.48,1.5-3.61,2.25-6.41,2.25c-1.56,0-2.96-0.23-4.21-0.68
				c-1.25-0.45-2.44-1.23-3.56-2.33l1.89-2.16c0.83,0.9,1.72,1.58,2.65,2.04c0.93,0.46,2.01,0.69,3.23,0.69
				c1.17,0,2.15-0.17,2.92-0.52c0.78-0.35,1.39-0.82,1.84-1.42c0.45-0.6,0.77-1.28,0.95-2.04c0.18-0.77,0.27-1.57,0.27-2.4v-2.03
				h-0.07c-0.63,1.01-1.45,1.76-2.47,2.23c-1.02,0.47-2.05,0.71-3.11,0.71c-1.24,0-2.38-0.2-3.42-0.61
				c-1.04-0.41-1.92-0.97-2.67-1.69c-0.74-0.72-1.32-1.58-1.72-2.57c-0.41-0.99-0.61-2.07-0.61-3.25c0-1.29,0.2-2.45,0.61-3.48
				c0.4-1.04,0.97-1.91,1.71-2.62c0.73-0.71,1.62-1.26,2.65-1.64c1.04-0.38,2.19-0.58,3.45-0.58c0.54,0,1.08,0.06,1.62,0.19
				c0.54,0.12,1.06,0.32,1.57,0.57c0.51,0.26,0.97,0.59,1.37,0.98c0.41,0.39,0.74,0.85,1.01,1.37h0.07v-2.71h2.64V247.85z
				 M327.81,240.65c0,0.81,0.15,1.56,0.44,2.25c0.29,0.69,0.7,1.28,1.2,1.79c0.51,0.51,1.1,0.91,1.77,1.2
				c0.68,0.29,1.4,0.44,2.16,0.44c0.9,0,1.7-0.16,2.4-0.47c0.7-0.31,1.29-0.74,1.77-1.27c0.49-0.53,0.85-1.14,1.1-1.82
				c0.25-0.69,0.37-1.41,0.37-2.18c0-0.86-0.14-1.64-0.41-2.35c-0.27-0.71-0.65-1.32-1.15-1.84c-0.49-0.52-1.09-0.92-1.79-1.2
				c-0.7-0.28-1.46-0.42-2.3-0.42c-0.83,0-1.59,0.15-2.28,0.46c-0.69,0.31-1.27,0.72-1.76,1.25c-0.48,0.53-0.86,1.15-1.13,1.86
				C327.95,239.04,327.81,239.81,327.81,240.65z"/>
			<path class="st0" d="M370.95,224.62h2.67l10.17,23.94h-3.31l-2.43-5.88h-11.96l-2.47,5.88h-3.21L370.95,224.62z M372.23,228.27
				h-0.07l-4.97,11.76h9.77L372.23,228.27z"/>
			<path class="st0" d="M405.66,247.85c0,2.89-0.74,5.08-2.21,6.58c-1.48,1.5-3.61,2.25-6.41,2.25c-1.56,0-2.96-0.23-4.21-0.68
				c-1.25-0.45-2.44-1.23-3.56-2.33l1.89-2.16c0.83,0.9,1.72,1.58,2.65,2.04c0.94,0.46,2.01,0.69,3.23,0.69
				c1.17,0,2.15-0.17,2.92-0.52c0.78-0.35,1.39-0.82,1.84-1.42c0.45-0.6,0.77-1.28,0.95-2.04c0.18-0.77,0.27-1.57,0.27-2.4v-2.03
				h-0.07c-0.63,1.01-1.45,1.76-2.46,2.23c-1.02,0.47-2.05,0.71-3.11,0.71c-1.24,0-2.38-0.2-3.42-0.61
				c-1.04-0.41-1.92-0.97-2.67-1.69c-0.74-0.72-1.32-1.58-1.72-2.57c-0.41-0.99-0.61-2.07-0.61-3.25c0-1.29,0.2-2.45,0.61-3.48
				c0.4-1.04,0.97-1.91,1.71-2.62c0.73-0.71,1.62-1.26,2.65-1.64c1.04-0.38,2.19-0.58,3.45-0.58c0.54,0,1.08,0.06,1.62,0.19
				c0.54,0.12,1.06,0.32,1.57,0.57c0.51,0.26,0.97,0.59,1.37,0.98c0.41,0.39,0.74,0.85,1.01,1.37h0.07v-2.71h2.64V247.85z
				 M391.81,240.65c0,0.81,0.15,1.56,0.44,2.25c0.29,0.69,0.7,1.28,1.2,1.79c0.51,0.51,1.1,0.91,1.77,1.2
				c0.68,0.29,1.4,0.44,2.16,0.44c0.9,0,1.7-0.16,2.4-0.47c0.7-0.31,1.29-0.74,1.77-1.27c0.49-0.53,0.85-1.14,1.1-1.82
				c0.25-0.69,0.37-1.41,0.37-2.18c0-0.86-0.14-1.64-0.41-2.35c-0.27-0.71-0.65-1.32-1.15-1.84c-0.49-0.52-1.09-0.92-1.79-1.2
				c-0.7-0.28-1.46-0.42-2.3-0.42c-0.84,0-1.59,0.15-2.28,0.46c-0.69,0.31-1.27,0.72-1.76,1.25c-0.48,0.53-0.86,1.15-1.13,1.86
				C391.94,239.04,391.81,239.81,391.81,240.65z"/>
			<path class="st0" d="M428.05,245.68c-0.95,1.22-1.99,2.07-3.11,2.55c-1.13,0.49-2.43,0.73-3.92,0.73c-1.24,0-2.35-0.22-3.35-0.66
				c-0.99-0.44-1.83-1.03-2.52-1.77c-0.69-0.74-1.21-1.62-1.59-2.64c-0.37-1.01-0.56-2.1-0.56-3.25c0-1.22,0.2-2.34,0.61-3.36
				c0.4-1.03,0.97-1.91,1.69-2.64c0.72-0.73,1.58-1.3,2.57-1.71c0.99-0.41,2.07-0.61,3.25-0.61c1.1,0,2.12,0.19,3.04,0.56
				c0.92,0.37,1.72,0.91,2.38,1.62c0.66,0.71,1.18,1.58,1.54,2.6c0.36,1.03,0.54,2.19,0.54,3.5v0.85h-12.78
				c0.05,0.68,0.21,1.33,0.49,1.94c0.28,0.62,0.65,1.16,1.1,1.62c0.45,0.46,0.98,0.83,1.59,1.1c0.61,0.27,1.27,0.41,1.99,0.41
				c1.15,0,2.12-0.2,2.91-0.61c0.79-0.41,1.5-1,2.13-1.79L428.05,245.68z M425.78,239.23c-0.05-1.35-0.49-2.43-1.32-3.25
				c-0.83-0.81-1.98-1.22-3.45-1.22c-1.46,0-2.65,0.41-3.55,1.22c-0.9,0.81-1.44,1.89-1.62,3.25H425.78z"/>
			<path class="st0" d="M436.09,236.49c0-0.72-0.02-1.4-0.07-2.03c-0.05-0.63-0.07-1.21-0.07-1.72h2.5c0,0.43,0.01,0.86,0.04,1.29
				c0.02,0.43,0.03,0.87,0.03,1.32h0.07c0.18-0.38,0.43-0.75,0.76-1.12c0.32-0.36,0.71-0.68,1.17-0.96
				c0.45-0.28,0.96-0.51,1.52-0.68c0.56-0.17,1.17-0.25,1.82-0.25c1.04,0,1.93,0.16,2.69,0.47c0.76,0.32,1.38,0.75,1.88,1.32
				c0.5,0.56,0.86,1.25,1.1,2.05c0.24,0.8,0.36,1.67,0.36,2.62v9.77h-2.64v-9.5c0-1.33-0.29-2.38-0.88-3.14
				c-0.59-0.77-1.5-1.15-2.74-1.15c-0.86,0-1.59,0.15-2.21,0.44c-0.62,0.29-1.13,0.71-1.52,1.25c-0.39,0.54-0.69,1.18-0.88,1.93
				c-0.19,0.74-0.29,1.57-0.29,2.47v7.71h-2.64V236.49z"/>
			<path class="st0" d="M469.52,236.69c-0.56-0.68-1.17-1.17-1.82-1.47c-0.66-0.3-1.38-0.46-2.16-0.46c-0.88,0-1.66,0.15-2.33,0.46
				c-0.68,0.31-1.24,0.73-1.67,1.27c-0.44,0.54-0.77,1.17-1,1.88c-0.22,0.71-0.34,1.47-0.34,2.28c0,0.81,0.13,1.57,0.39,2.28
				c0.26,0.71,0.62,1.34,1.08,1.88c0.46,0.54,1.02,0.96,1.67,1.27c0.66,0.31,1.39,0.46,2.2,0.46c1.74,0,3.08-0.65,4.02-1.96
				l1.96,1.86c-0.76,0.88-1.67,1.52-2.7,1.93c-1.04,0.41-2.13,0.61-3.28,0.61c-1.22,0-2.33-0.2-3.35-0.61
				c-1.01-0.4-1.88-0.98-2.59-1.72c-0.71-0.74-1.26-1.62-1.66-2.64c-0.39-1.01-0.59-2.13-0.59-3.35c0-1.19,0.2-2.3,0.59-3.31
				c0.39-1.01,0.95-1.89,1.67-2.64c0.72-0.74,1.58-1.32,2.59-1.74c1-0.42,2.11-0.63,3.33-0.63c1.17,0,2.28,0.2,3.33,0.61
				c1.05,0.41,1.97,1.04,2.75,1.89L469.52,236.69z"/>
			<path class="st0" d="M483.75,252.17c-0.27,0.68-0.55,1.29-0.83,1.84c-0.28,0.55-0.62,1.02-1.01,1.42
				c-0.39,0.39-0.87,0.7-1.42,0.91c-0.55,0.21-1.22,0.32-2.01,0.32c-0.38,0-0.78-0.02-1.2-0.07c-0.42-0.05-0.81-0.16-1.17-0.34
				l0.34-2.3c0.27,0.11,0.55,0.19,0.84,0.22c0.29,0.03,0.63,0.05,1.02,0.05c0.86,0,1.48-0.24,1.89-0.71
				c0.41-0.47,0.76-1.11,1.05-1.89l1.08-2.98l-6.56-15.92h3.08l4.9,12.41h0.07l4.7-12.41h2.88L483.75,252.17z"/>
		</g>
		<g>
			<path class="st0" d="M340.61,121.96c0-14.91-4.82-26.64-14.74-35.85c-8.79-8.1-22.14-12.22-39.66-12.22h-6.39v96.14h6.39
				c9.35,0,17.17-0.98,23.26-2.91c5.92-1.99,11.41-5.23,16.24-9.61C335.73,148.37,340.61,136.74,340.61,121.96z"/>
			<path class="st0" d="M195,191.4v-38.63h-60.87C145.31,175.27,168.3,190.85,195,191.4z"/>
			<path class="st0" d="M463.92,142.77c-2.2-2.49-5.04-4.82-8.53-7c-3.49-2.18-7.64-4.25-12.45-6.23l-18.55-7.36
				c-26.31-10.6-39.47-26.1-39.47-46.5c0-0.57,0.02-1.13,0.04-1.7c-3.48,3.67-6.57,7.72-9.2,12.08
				c-10.76-17.89-29.34-30.54-51-33.23c7.62,3.01,14.73,7.47,21.13,13.32c15.48,14.12,23.33,32.9,23.33,55.8
				c0,22.99-8.18,41.87-24.31,56.12c-6.33,5.57-12.99,9.84-19.86,12.78c21.54-2.77,39.99-15.39,50.7-33.19
				c0.73,1.22,1.51,2.4,2.32,3.56l-0.02,0.01c12.54,18.24,33.56,30.19,57.36,30.19c1.28,0,2.55-0.03,3.81-0.1v-0.01
				c2.64-0.14,5.23-0.44,7.78-0.87c5.49-1.25,10.28-3.84,14.35-7.78c5.98-5.77,8.96-13.09,8.96-21.95c0-3.56-0.52-6.82-1.56-9.79
				C467.73,147.99,466.11,145.26,463.92,142.77z"/>
			<path class="st0" d="M196.47,52.29c-38.42,0-69.57,31.15-69.57,69.57c0,1.06,0.03,2.11,0.08,3.15H195V67.12h29.1v118.61
				c10.79-4.68,20.16-12,27.29-21.16V79.17C238.65,62.82,218.79,52.29,196.47,52.29z"/>
			<path class="st0" d="M504.89,118.15c-0.02-0.36-0.05-0.71-0.07-1.07c-0.06-0.93-0.14-1.85-0.24-2.77c-0.04-0.33-0.07-0.66-0.11-1
				c-0.15-1.22-0.32-2.43-0.53-3.63c-0.01-0.03-0.01-0.06-0.02-0.09c-0.21-1.17-0.46-2.33-0.72-3.49c-0.07-0.29-0.14-0.58-0.21-0.87
				c-0.24-0.97-0.5-1.93-0.77-2.88c-0.06-0.22-0.12-0.44-0.19-0.66c-0.72-2.38-1.56-4.7-2.52-6.96c-0.07-0.17-0.14-0.33-0.22-0.5
				c-0.46-1.07-0.95-2.12-1.46-3.16c-0.03-0.05-0.05-0.1-0.08-0.16c-1.14-2.29-2.41-4.51-3.79-6.66c-0.02-0.03-0.04-0.07-0.07-0.1
				c-9.66-14.95-24.9-25.97-42.78-30.09c-1.05-0.26-2.75-0.45-3.96-0.57c-1.49-0.16-3.06-0.24-4.71-0.24
				c-8.05,0-14.73,2.18-20.04,6.53c-5.31,4.27-7.97,9.65-7.97,16.13c0,8.94,6.97,16.13,20.92,21.59l19.17,7.47
				c15.6,6.01,27.02,13.35,34.24,22.01c5.5,6.6,8.9,14.34,10.21,23.21c3.87-8.66,6.03-18.24,6.03-28.33
				C505,120.62,504.95,119.38,504.89,118.15z"/>
		</g>
	</g>
	<g>
		<g>
			<path class="st0" d="M170.85,296.79c-0.46-0.56-1.02-0.98-1.68-1.28c-0.67-0.3-1.44-0.45-2.31-0.45c-0.87,0-1.68,0.17-2.43,0.51
				c-0.75,0.34-1.39,0.81-1.94,1.42c-0.55,0.61-0.97,1.33-1.28,2.16c-0.31,0.83-0.46,1.74-0.46,2.71c0,0.99,0.15,1.9,0.46,2.73
				c0.31,0.82,0.73,1.54,1.27,2.15c0.54,0.61,1.17,1.08,1.89,1.42c0.72,0.34,1.5,0.51,2.34,0.51c0.95,0,1.8-0.2,2.53-0.6
				c0.73-0.4,1.34-0.95,1.82-1.67l3.87,2.89c-0.89,1.25-2.03,2.17-3.4,2.77c-1.37,0.6-2.78,0.89-4.23,0.89
				c-1.65,0-3.17-0.26-4.56-0.78c-1.39-0.52-2.59-1.26-3.61-2.22c-1.01-0.96-1.8-2.13-2.37-3.5c-0.57-1.37-0.85-2.9-0.85-4.59
				c0-1.69,0.28-3.22,0.85-4.59c0.57-1.37,1.36-2.54,2.37-3.5c1.01-0.96,2.21-1.7,3.61-2.22c1.39-0.52,2.91-0.77,4.56-0.77
				c0.6,0,1.22,0.05,1.86,0.16c0.65,0.11,1.28,0.28,1.91,0.52c0.63,0.24,1.23,0.56,1.8,0.95c0.58,0.4,1.09,0.88,1.55,1.46
				L170.85,296.79z"/>
			<path class="st0" d="M177.47,291.3h8.16c1.07,0,2.09,0.1,3.05,0.31c0.96,0.21,1.81,0.56,2.53,1.04c0.73,0.49,1.3,1.14,1.73,1.97
				c0.43,0.82,0.64,1.85,0.64,3.08c0,1.49-0.39,2.76-1.16,3.8c-0.77,1.04-1.91,1.7-3.4,1.98l5.36,8.91h-5.57l-4.41-8.43h-2.29v8.43
				h-4.65V291.3z M182.12,300.03h2.74c0.42,0,0.86-0.01,1.33-0.04c0.47-0.03,0.89-0.12,1.27-0.27c0.38-0.15,0.69-0.38,0.94-0.7
				c0.25-0.32,0.37-0.76,0.37-1.34c0-0.54-0.11-0.96-0.33-1.28c-0.22-0.32-0.5-0.56-0.83-0.73c-0.34-0.17-0.73-0.28-1.16-0.34
				c-0.44-0.06-0.86-0.09-1.28-0.09h-3.04V300.03z"/>
			<path class="st0" d="M196.96,291.3h14.33v4.29h-9.68v3.93h9.15v4.29h-9.15v4.29h10.22v4.29h-14.87V291.3z"/>
			<path class="st0" d="M222.49,291.3h3.84l9.18,21.1h-5.24l-1.82-4.47h-8.19l-1.76,4.47h-5.13L222.49,291.3z M224.28,297.44
				l-2.56,6.56h5.15L224.28,297.44z"/>
			<path class="st0" d="M238.97,295.42h-6.02v-4.11h16.69v4.11h-6.02v16.99h-4.65V295.42z"/>
			<path class="st0" d="M252.17,291.3h14.33v4.29h-9.68v3.93h9.15v4.29h-9.15v4.29h10.22v4.29h-14.87V291.3z"/>
			<path class="st0" d="M290.02,296.46c-0.38-0.48-0.89-0.83-1.53-1.06c-0.65-0.23-1.26-0.34-1.83-0.34c-0.34,0-0.69,0.04-1.04,0.12
				c-0.36,0.08-0.7,0.2-1.01,0.37c-0.32,0.17-0.58,0.39-0.77,0.67c-0.2,0.28-0.3,0.62-0.3,1.01c0,0.64,0.24,1.12,0.72,1.46
				c0.48,0.34,1.08,0.63,1.8,0.86c0.73,0.24,1.5,0.48,2.34,0.72c0.83,0.24,1.61,0.58,2.34,1.01c0.72,0.44,1.33,1.02,1.8,1.76
				c0.48,0.74,0.72,1.72,0.72,2.95c0,1.17-0.22,2.2-0.66,3.07c-0.44,0.87-1.03,1.6-1.77,2.18c-0.75,0.58-1.61,1-2.59,1.28
				c-0.98,0.28-2.02,0.42-3.11,0.42c-1.37,0-2.64-0.21-3.81-0.63c-1.17-0.42-2.26-1.09-3.28-2.03l3.31-3.64
				c0.48,0.64,1.08,1.13,1.8,1.47c0.72,0.35,1.47,0.52,2.25,0.52c0.38,0,0.76-0.05,1.15-0.13c0.39-0.09,0.73-0.22,1.04-0.4
				c0.31-0.18,0.56-0.41,0.74-0.69c0.19-0.28,0.28-0.61,0.28-0.98c0-0.64-0.24-1.14-0.73-1.51c-0.49-0.37-1.1-0.68-1.83-0.94
				c-0.73-0.26-1.53-0.52-2.38-0.77c-0.85-0.26-1.65-0.61-2.38-1.04c-0.74-0.44-1.35-1.01-1.83-1.73c-0.49-0.72-0.73-1.66-0.73-2.83
				c0-1.13,0.22-2.13,0.67-2.98c0.45-0.85,1.04-1.57,1.79-2.15c0.74-0.58,1.6-1.01,2.58-1.3c0.97-0.29,1.98-0.43,3.01-0.43
				c1.19,0,2.34,0.17,3.46,0.51c1.11,0.34,2.12,0.9,3.01,1.7L290.02,296.46z"/>
			<path class="st0" d="M295.56,301.85c0-1.69,0.28-3.22,0.85-4.59c0.57-1.37,1.36-2.54,2.37-3.5c1.01-0.96,2.21-1.7,3.61-2.22
				c1.39-0.52,2.91-0.77,4.56-0.77c1.65,0,3.17,0.26,4.56,0.77c1.39,0.52,2.59,1.26,3.61,2.22c1.01,0.96,1.8,2.13,2.37,3.5
				c0.57,1.37,0.85,2.9,0.85,4.59c0,1.69-0.28,3.22-0.85,4.59c-0.57,1.37-1.36,2.54-2.37,3.5c-1.01,0.96-2.22,1.7-3.61,2.22
				c-1.39,0.52-2.91,0.78-4.56,0.78c-1.65,0-3.17-0.26-4.56-0.78c-1.39-0.52-2.59-1.26-3.61-2.22c-1.01-0.96-1.8-2.13-2.37-3.5
				C295.84,305.07,295.56,303.54,295.56,301.85z M300.39,301.85c0,0.99,0.15,1.9,0.46,2.73c0.31,0.82,0.75,1.54,1.33,2.15
				c0.58,0.61,1.27,1.08,2.07,1.42c0.8,0.34,1.7,0.51,2.7,0.51c0.99,0,1.89-0.17,2.7-0.51c0.8-0.34,1.49-0.81,2.07-1.42
				c0.58-0.61,1.02-1.32,1.33-2.15c0.31-0.82,0.46-1.73,0.46-2.73c0-0.97-0.15-1.88-0.46-2.71c-0.31-0.83-0.75-1.55-1.33-2.16
				c-0.58-0.61-1.27-1.08-2.07-1.42c-0.8-0.34-1.7-0.51-2.7-0.51c-0.99,0-1.89,0.17-2.7,0.51c-0.8,0.34-1.5,0.81-2.07,1.42
				c-0.58,0.61-1.02,1.33-1.33,2.16C300.54,299.98,300.39,300.88,300.39,301.85z"/>
			<path class="st0" d="M321.48,291.3h7.03l4.86,13.77h0.06l4.89-13.77h7v21.1h-4.65v-16.18h-0.06l-5.54,16.18h-3.55l-5.33-16.18
				h-0.06v16.18h-4.65V291.3z"/>
			<path class="st0" d="M349.79,291.3h14.33v4.29h-9.68v3.93h9.15v4.29h-9.15v4.29h10.22v4.29h-14.87V291.3z"/>
			<path class="st0" d="M372.47,295.42h-6.02v-4.11h16.69v4.11h-6.02v16.99h-4.65V295.42z"/>
			<path class="st0" d="M385.49,291.3h4.65v7.87h9.03v-7.87h4.65v21.1h-4.65v-9.12h-9.03v9.12h-4.65V291.3z"/>
			<path class="st0" d="M408.05,291.3h4.65v21.1h-4.65V291.3z"/>
			<path class="st0" d="M416.93,291.3h6.32l8.97,14.66h0.06V291.3h4.65v21.1h-6.08l-9.21-15.02h-0.06v15.02h-4.65V291.3z"/>
			<path class="st0" d="M460.31,310.91c-1.37,0.72-2.8,1.23-4.29,1.55c-1.49,0.32-3.01,0.48-4.56,0.48c-1.65,0-3.17-0.26-4.56-0.78
				c-1.39-0.52-2.59-1.26-3.61-2.22c-1.01-0.96-1.8-2.13-2.37-3.5c-0.57-1.37-0.85-2.9-0.85-4.59c0-1.69,0.28-3.22,0.85-4.59
				c0.57-1.37,1.36-2.54,2.37-3.5c1.01-0.96,2.21-1.7,3.61-2.22c1.39-0.52,2.91-0.77,4.56-0.77c1.69,0,3.24,0.2,4.66,0.61
				c1.42,0.41,2.67,1.11,3.74,2.1l-3.28,3.58c-0.64-0.66-1.35-1.15-2.15-1.49c-0.79-0.34-1.79-0.51-2.98-0.51
				c-0.99,0-1.89,0.17-2.7,0.51c-0.8,0.34-1.5,0.81-2.07,1.42c-0.58,0.61-1.02,1.33-1.33,2.16c-0.31,0.83-0.46,1.74-0.46,2.71
				c0,0.99,0.15,1.9,0.46,2.73c0.31,0.82,0.75,1.54,1.33,2.15c0.58,0.61,1.27,1.08,2.07,1.42c0.8,0.34,1.7,0.51,2.7,0.51
				c1.01,0,1.89-0.11,2.62-0.34c0.73-0.23,1.32-0.46,1.76-0.7v-3.43h-3.78v-4.29h8.25V310.91z"/>
			<path class="st0" d="M492.32,310.91c-1.37,0.72-2.8,1.23-4.29,1.55c-1.49,0.32-3.01,0.48-4.56,0.48c-1.65,0-3.17-0.26-4.56-0.78
				c-1.39-0.52-2.59-1.26-3.61-2.22c-1.01-0.96-1.8-2.13-2.37-3.5c-0.57-1.37-0.85-2.9-0.85-4.59c0-1.69,0.28-3.22,0.85-4.59
				c0.57-1.37,1.36-2.54,2.37-3.5c1.01-0.96,2.22-1.7,3.61-2.22c1.39-0.52,2.91-0.77,4.56-0.77c1.69,0,3.24,0.2,4.66,0.61
				c1.42,0.41,2.67,1.11,3.74,2.1l-3.28,3.58c-0.64-0.66-1.35-1.15-2.15-1.49c-0.79-0.34-1.79-0.51-2.98-0.51
				c-0.99,0-1.89,0.17-2.7,0.51c-0.8,0.34-1.5,0.81-2.07,1.42c-0.58,0.61-1.02,1.33-1.33,2.16c-0.31,0.83-0.46,1.74-0.46,2.71
				c0,0.99,0.15,1.9,0.46,2.73c0.31,0.82,0.75,1.54,1.33,2.15c0.58,0.61,1.27,1.08,2.07,1.42c0.8,0.34,1.7,0.51,2.7,0.51
				c1.01,0,1.89-0.11,2.62-0.34c0.73-0.23,1.32-0.46,1.76-0.7v-3.43h-3.78v-4.29h8.25V310.91z"/>
			<path class="st0" d="M496.4,291.3h8.16c1.07,0,2.09,0.1,3.05,0.31c0.96,0.21,1.81,0.56,2.53,1.04c0.72,0.49,1.3,1.14,1.73,1.97
				c0.43,0.82,0.64,1.85,0.64,3.08c0,1.49-0.39,2.76-1.16,3.8c-0.77,1.04-1.91,1.7-3.4,1.98l5.36,8.91h-5.57l-4.41-8.43h-2.29v8.43
				h-4.65V291.3z M501.05,300.03h2.74c0.42,0,0.86-0.01,1.33-0.04c0.47-0.03,0.89-0.12,1.27-0.27c0.38-0.15,0.69-0.38,0.94-0.7
				c0.25-0.32,0.37-0.76,0.37-1.34c0-0.54-0.11-0.96-0.33-1.28c-0.22-0.32-0.5-0.56-0.83-0.73c-0.34-0.17-0.72-0.28-1.16-0.34
				c-0.44-0.06-0.86-0.09-1.28-0.09h-3.04V300.03z"/>
			<path class="st0" d="M515.89,291.3h14.33v4.29h-9.68v3.93h9.15v4.29h-9.15v4.29h10.22v4.29h-14.87V291.3z"/>
			<path class="st0" d="M541.43,291.3h3.84l9.18,21.1h-5.24l-1.82-4.47h-8.19l-1.76,4.47h-5.12L541.43,291.3z M543.22,297.44
				l-2.56,6.56h5.16L543.22,297.44z"/>
			<path class="st0" d="M557.91,295.42h-6.02v-4.11h16.69v4.11h-6.02v16.99h-4.65V295.42z"/>
			<path class="st0" d="M572.66,309.84c0-0.38,0.07-0.73,0.21-1.07c0.14-0.34,0.33-0.63,0.58-0.88c0.25-0.25,0.54-0.44,0.88-0.58
				c0.34-0.14,0.7-0.21,1.07-0.21c0.38,0,0.73,0.07,1.07,0.21c0.34,0.14,0.63,0.33,0.88,0.58c0.25,0.25,0.44,0.54,0.58,0.88
				c0.14,0.34,0.21,0.7,0.21,1.07c0,0.38-0.07,0.74-0.21,1.07c-0.14,0.34-0.33,0.63-0.58,0.88c-0.25,0.25-0.54,0.44-0.88,0.58
				c-0.34,0.14-0.7,0.21-1.07,0.21c-0.38,0-0.74-0.07-1.07-0.21c-0.34-0.14-0.63-0.33-0.88-0.58c-0.25-0.25-0.44-0.54-0.58-0.88
				C572.73,310.57,572.66,310.22,572.66,309.84z M577.63,305.43h-4.47V291.3h4.47V305.43z"/>
		</g>
		<g>
			<g>
				<path class="st0" d="M68.16,319.98c2.87-1.39,5.75-2.46,7.93-3.13c3.35-0.98,5.42-0.07,6.64,1.68c0.47,0.68,0.48,1.32-0.94,1.63
					c-2.92,0.56-9.21,3.53-12.53,5.22c-1.7,0.82-2.5,0.99-3.64-0.06c-0.81-0.73-1.85-1.67-2.24-2.3c-0.67-1.02-0.88-2.01-0.63-3.81
					c1.35-8.18,7.57-28.93,10.28-34.96c0.7-1.57,1.53-1.3,2.39-0.32c0.44,0.55,0.89,1.43,1.1,2.42c0.33,1.55,0.24,3.83-0.72,6.89
					C72.54,304.22,70.01,312.02,68.16,319.98z"/>
				<path class="st0" d="M93.35,310.43c-1.48,0.32-3.06,0.21-4.68-0.42c-0.11,1.32-0.01,2.66,0.23,3.77c0.59,2.72,2.11,4.4,3.97,4
					c4.7-1.01,7.86-6.48,9.57-10.86c0.47-1.14,1.25-1.43,2.01-0.3c0.31,0.52,0.75,2.3,0,4.21c-1.79,4.33-6.11,8.3-10.92,9.4
					c-5.74,1.3-9.71-1.8-10.77-6.75c-0.48-2.23-0.38-4.77,0.39-7.53c1.81-7.25,6.11-11.6,9.7-12.37c0.87-0.19,1.57-0.21,2.27,0.03
					c1.94,0.62,3.39,1.34,4.53,2.39c0.49,0.48,0.94,1.35,1.11,2.16C101.54,301.87,98.79,309.26,93.35,310.43z M89.03,307.48
					c0.56,0.2,1.02,0.23,1.45,0.14c1.48-0.32,3.07-2.6,3.94-4.54c1.28-2.8,1.95-5.98,1.15-6.4
					C94.48,296.14,90.72,300.9,89.03,307.48z"/>
				<path class="st0" d="M102.72,305.57c0.59-3.3,1.89-8.69,3.4-13.67c-1.97,0.16-3.23-0.28-3.89-0.91
					c-1.15-1.11-0.66-1.86,0.78-2.11c1.44-0.24,3.09-0.66,4.43-1.08c1.2-3.75,2.06-6.07,3.04-8.42c0.64-1.56,1.39-1.66,2.32-0.63
					c0.59,0.65,1.07,1.65,1.22,2.39c0.24,1.11,0.3,2.59-0.07,4.48c1.97-0.17,3.24,0.6,3.83,1.25c0.86,0.98,0.58,1.82-0.94,1.95
					c-1.14,0.12-2.72,0.59-4.04,1.06c-1.49,4.53-3.7,11.41-4.85,16.57c-0.38,1.83-0.41,3.52-0.12,4.88c0.4,1.86,1.3,3.02,2.35,2.8
					c2.41-0.52,4.79-5.11,5.96-10.21c0.36-1.63,1.76-2.06,2.55-0.48c0.59,1.23,0.54,2.21,0.17,3.78c-0.47,2.04-3.47,8.25-8.66,9.37
					c-3.28,0.7-6.7-1.34-7.61-5.61C102.3,309.61,102.3,307.79,102.72,305.57z"/>
				<path class="st0" d="M123.21,284.66c-0.59,1.16-1.31,1.45-2.01,1.47c-0.65,0.01-1.21-0.52-1.01-1.4
					c0.71-3.32,2.87-10.45,4.57-13.34c0.94-1.63,1.97-1.39,2.64-0.37c0.7,1.14,0.47,2.81-0.01,4.14
					C126.43,277.69,124.45,282.32,123.21,284.66z"/>
				<path class="st0" d="M122.06,299.79c1.01-1.32,2.01-1.21,2.51,0.24c1.42-3.35,2.89-7.03,3.93-10.03
					c-0.23-2.28,0.21-3.86,1.38-5.34c0.8-1.08,1.82-1.75,2.75-1.95c1.67-0.36,2.33,0.92,1.09,4.49c0.1,0.76,0.26,1.82,0.44,2.62
					c0.94,4.39,2.61,8.24,3.21,11.61c0.27,1.56,0.33,3.36-0.05,4.87c2.16-2.28,3.46-4.69,3.92-7.96c0.25-1.54,1.27-1.31,1.92-0.41
					c0.44,0.55,1,2.24,0.3,4.4c-1.42,4.84-5.24,8.12-9.84,9.3c-3.68,0.92-7.61,0.73-10.55-2.72c-0.93-1.03-1.62-2.43-1.93-3.86
					C120.72,303.19,120.95,301.26,122.06,299.79z M131.2,301.65c-0.43-1.98-0.91-3.95-1.4-5.59c-0.98,2.67-2.14,5.7-3.42,8.76
					c1.37,2.75,3.13,4.63,4.49,4.34C132.17,308.88,132.06,305.67,131.2,301.65z"/>
			</g>
			<path class="st0" d="M56.81,346.96c-0.82,0.11-1.69-0.16-2.31-0.8c-1.03-1.07-1-2.77,0.06-3.8c0.93-0.9,23.73-22.23,99.41-26.97
				c1.49-0.09,2.77,1.04,2.86,2.52c0.09,1.49-1.02,2.76-2.52,2.86c-73.29,4.58-95.79,25.25-96,25.46
				C57.89,346.64,57.36,346.88,56.81,346.96z"/>
		</g>
	</g>
</g>
</svg>
