 <svg version="1.1" id="Layer_1" xmlns="http://www.w3.org/2000/svg" xmlnsXlink="http://www.w3.org/1999/xlink" x="0px" y="0px"
        viewBox="0 0 631.89 399.28" xmlSpace="preserve">
        <g>
          <g>
            <g>
              <path className="st0" fill="#892A51" d="M147.53,269.78h2.67l10.17,23.94h-3.31l-2.43-5.88h-11.96l-2.47,5.88h-3.21L147.53,269.78z M148.81,273.43
                  h-0.07l-4.97,11.76h9.77L148.81,273.43z"/>
              <path className="st0" fill="#892A51" d="M179.61,290.91h-0.07c-0.49,0.9-1.28,1.66-2.35,2.28c-1.07,0.62-2.31,0.93-3.73,0.93
                  c-1.11,0-2.14-0.21-3.11-0.63c-0.97-0.42-1.81-1-2.52-1.74c-0.71-0.74-1.27-1.62-1.67-2.64c-0.41-1.01-0.61-2.12-0.61-3.31
                  s0.2-2.3,0.61-3.31c0.4-1.01,0.97-1.89,1.69-2.64c0.72-0.74,1.59-1.32,2.62-1.74c1.02-0.42,2.16-0.63,3.4-0.63
                  c1.15,0,2.2,0.24,3.16,0.71c0.96,0.47,1.8,1.14,2.52,1.99h0.07v-12.04h2.64v25.56h-2.64V290.91z M179.61,285.8
                  c0-0.83-0.13-1.61-0.39-2.32c-0.26-0.71-0.64-1.33-1.13-1.86c-0.5-0.53-1.09-0.95-1.78-1.25c-0.69-0.3-1.46-0.46-2.32-0.46
                  c-0.86,0-1.63,0.15-2.32,0.46c-0.69,0.31-1.28,0.72-1.77,1.25c-0.5,0.53-0.87,1.15-1.13,1.86c-0.26,0.71-0.39,1.48-0.39,2.32
                  c0,0.83,0.13,1.61,0.39,2.31c0.26,0.71,0.63,1.33,1.13,1.86c0.5,0.53,1.09,0.95,1.77,1.25c0.69,0.31,1.46,0.46,2.32,0.46
                  c0.86,0,1.63-0.15,2.32-0.46c0.69-0.3,1.28-0.72,1.78-1.25c0.49-0.53,0.87-1.15,1.13-1.86
                  C179.48,287.41,179.61,286.64,179.61,285.8z"/>
              <path className="st0" fill="#892A51" d="M197.69,293.71h-2.91l-6.46-15.82h3.08l4.93,12.41h0.07l4.7-12.41h2.84L197.69,293.71z"/>
              <path className="st0" fill="#892A51" d="M224.3,290.84c-0.95,1.22-1.99,2.07-3.11,2.55c-1.13,0.49-2.43,0.73-3.92,0.73c-1.24,0-2.35-0.22-3.35-0.66
                  c-0.99-0.44-1.83-1.03-2.52-1.77c-0.69-0.74-1.21-1.62-1.59-2.64c-0.37-1.01-0.56-2.1-0.56-3.25c0-1.22,0.2-2.34,0.61-3.36
                  c0.4-1.03,0.97-1.91,1.69-2.64c0.72-0.73,1.58-1.3,2.57-1.71c0.99-0.41,2.07-0.61,3.25-0.61c1.1,0,2.12,0.19,3.04,0.56
                  s1.72,0.91,2.38,1.62c0.67,0.71,1.18,1.58,1.54,2.6c0.36,1.03,0.54,2.19,0.54,3.5v0.85H212.1c0.05,0.68,0.21,1.33,0.49,1.94
                  c0.28,0.62,0.65,1.16,1.1,1.62c0.45,0.46,0.98,0.83,1.59,1.1c0.61,0.27,1.27,0.41,1.99,0.41c1.15,0,2.12-0.2,2.91-0.61
                  c0.79-0.41,1.5-1,2.13-1.79L224.3,290.84z M222.04,284.38c-0.05-1.35-0.49-2.43-1.32-3.25c-0.83-0.81-1.98-1.22-3.45-1.22
                  c-1.46,0-2.65,0.41-3.55,1.22c-0.9,0.81-1.44,1.89-1.62,3.25H222.04z"/>
              <path className="st0" fill="#892A51" d="M232.34,281.64c0-0.72-0.02-1.4-0.07-2.03c-0.05-0.63-0.07-1.21-0.07-1.72h2.5c0,0.43,0.01,0.86,0.04,1.29
                  c0.02,0.43,0.03,0.87,0.03,1.32h0.07c0.18-0.38,0.43-0.75,0.76-1.12c0.32-0.36,0.71-0.68,1.17-0.96
                  c0.45-0.28,0.96-0.51,1.52-0.68c0.56-0.17,1.17-0.25,1.82-0.25c0.18,0,0.36,0.01,0.54,0.03c0.18,0.02,0.36,0.07,0.54,0.13
                  l-0.17,2.67c-0.45-0.14-0.93-0.2-1.42-0.2c-1.62,0-2.8,0.52-3.53,1.57c-0.73,1.05-1.1,2.48-1.1,4.31v7.71h-2.64V281.64z"/>
              <path className="st0" fill="#892A51" d="M256.28,280.12h-4.67v7.91c0,0.52,0.01,1,0.03,1.44c0.02,0.44,0.11,0.82,0.27,1.15
                  c0.16,0.33,0.39,0.59,0.71,0.78c0.32,0.19,0.77,0.29,1.35,0.29c0.39,0,0.78-0.05,1.18-0.13c0.41-0.09,0.79-0.23,1.15-0.41
                  l0.1,2.4c-0.45,0.2-0.95,0.35-1.5,0.44c-0.55,0.09-1.08,0.13-1.57,0.13c-0.95,0-1.7-0.12-2.26-0.37c-0.56-0.25-1-0.6-1.32-1.05
                  c-0.32-0.45-0.53-1.01-0.63-1.67c-0.1-0.66-0.15-1.4-0.15-2.21v-8.69h-3.45v-2.23h3.45v-4.5h2.64v4.5h4.67V280.12z"/>
              <path className="st0" fill="#892A51" d="M262.57,271.7c0-0.52,0.18-0.97,0.56-1.35c0.37-0.38,0.83-0.58,1.37-0.58c0.54,0,1,0.19,1.37,0.58
                  c0.37,0.38,0.56,0.83,0.56,1.35c0,0.56-0.18,1.03-0.54,1.39c-0.36,0.36-0.82,0.54-1.39,0.54c-0.56,0-1.03-0.18-1.38-0.54
                  C262.75,272.73,262.57,272.27,262.57,271.7z M263.17,277.89h2.64v15.82h-2.64V277.89z"/>
              <path className="st0" fill="#892A51" d="M274.77,289.55c0.52,0.65,1.09,1.17,1.71,1.55c0.62,0.38,1.4,0.58,2.35,0.58c0.4,0,0.82-0.05,1.23-0.13
                  c0.42-0.09,0.8-0.24,1.13-0.44c0.34-0.2,0.61-0.46,0.81-0.76c0.2-0.3,0.31-0.67,0.31-1.1s-0.1-0.78-0.29-1.05
                  c-0.19-0.27-0.45-0.5-0.76-0.69c-0.32-0.19-0.67-0.34-1.08-0.46c-0.41-0.11-0.82-0.21-1.25-0.31c-0.74-0.16-1.45-0.34-2.13-0.54
                  c-0.67-0.2-1.27-0.47-1.77-0.79c-0.51-0.33-0.91-0.75-1.22-1.27c-0.3-0.52-0.46-1.18-0.46-1.99c0-0.77,0.17-1.44,0.51-2.03
                  c0.34-0.59,0.79-1.07,1.35-1.45c0.56-0.38,1.2-0.68,1.89-0.88c0.7-0.2,1.42-0.31,2.16-0.31c1.13,0,2.17,0.23,3.13,0.68
                  c0.96,0.45,1.71,1.18,2.25,2.2l-2.2,1.45c-0.34-0.56-0.78-1.02-1.34-1.37c-0.55-0.35-1.22-0.52-2.01-0.52
                  c-0.36,0-0.73,0.05-1.1,0.14c-0.37,0.09-0.7,0.22-1,0.41c-0.29,0.18-0.53,0.41-0.73,0.69c-0.19,0.28-0.29,0.6-0.29,0.96
                  c0,0.34,0.11,0.63,0.32,0.86c0.21,0.24,0.51,0.44,0.88,0.63c0.37,0.18,0.8,0.34,1.28,0.47c0.48,0.14,0.98,0.25,1.5,0.34
                  c0.7,0.14,1.36,0.31,1.99,0.52c0.63,0.21,1.18,0.5,1.66,0.86c0.47,0.36,0.84,0.81,1.11,1.35c0.27,0.54,0.41,1.21,0.41,1.99
                  c0,0.9-0.18,1.67-0.54,2.3c-0.36,0.63-0.84,1.14-1.44,1.54c-0.6,0.39-1.27,0.68-2.03,0.86c-0.75,0.18-1.53,0.27-2.31,0.27
                  c-1.35,0-2.52-0.21-3.5-0.63c-0.98-0.42-1.86-1.19-2.65-2.32L274.77,289.55z"/>
              <path className="st0" fill="#892A51" d="M291.84,271.7c0-0.52,0.18-0.97,0.56-1.35c0.37-0.38,0.83-0.58,1.37-0.58s1,0.19,1.37,0.58
                  c0.37,0.38,0.56,0.83,0.56,1.35c0,0.56-0.18,1.03-0.54,1.39c-0.36,0.36-0.82,0.54-1.39,0.54c-0.56,0-1.03-0.18-1.38-0.54
                  C292.02,272.73,291.84,272.27,291.84,271.7z M292.45,277.89h2.64v15.82h-2.64V277.89z"/>
              <path className="st0" fill="#892A51" d="M303.71,281.64c0-0.72-0.02-1.4-0.07-2.03c-0.05-0.63-0.07-1.21-0.07-1.72h2.5c0,0.43,0.01,0.86,0.04,1.29
                  c0.02,0.43,0.03,0.87,0.03,1.32h0.07c0.18-0.38,0.43-0.75,0.76-1.12c0.32-0.36,0.71-0.68,1.17-0.96
                  c0.45-0.28,0.96-0.51,1.52-0.68c0.56-0.17,1.17-0.25,1.82-0.25c1.04,0,1.93,0.16,2.69,0.47c0.76,0.32,1.38,0.75,1.88,1.32
                  c0.5,0.56,0.86,1.25,1.1,2.05c0.24,0.8,0.36,1.67,0.36,2.62v9.77h-2.64v-9.5c0-1.33-0.29-2.38-0.88-3.14
                  c-0.59-0.77-1.5-1.15-2.74-1.15c-0.86,0-1.59,0.15-2.21,0.44c-0.62,0.29-1.13,0.71-1.52,1.25c-0.39,0.54-0.69,1.18-0.88,1.93
                  c-0.19,0.74-0.29,1.57-0.29,2.47v7.71h-2.64V281.64z"/>
              <path className="st0" fill="#892A51" d="M341.67,293c0,2.89-0.74,5.08-2.21,6.58c-1.48,1.5-3.61,2.25-6.41,2.25c-1.56,0-2.96-0.23-4.21-0.68
                  c-1.25-0.45-2.44-1.23-3.56-2.33l1.89-2.16c0.83,0.9,1.72,1.58,2.65,2.04c0.93,0.46,2.01,0.69,3.23,0.69
                  c1.17,0,2.15-0.17,2.92-0.52c0.78-0.35,1.39-0.82,1.84-1.42c0.45-0.6,0.77-1.28,0.95-2.04c0.18-0.77,0.27-1.57,0.27-2.4v-2.03
                  h-0.07c-0.63,1.01-1.45,1.76-2.47,2.23c-1.02,0.47-2.05,0.71-3.11,0.71c-1.24,0-2.38-0.2-3.42-0.61
                  c-1.04-0.41-1.92-0.97-2.67-1.69c-0.74-0.72-1.32-1.58-1.72-2.57c-0.41-0.99-0.61-2.07-0.61-3.25c0-1.29,0.2-2.45,0.61-3.48
                  c0.4-1.04,0.97-1.91,1.71-2.62c0.73-0.71,1.62-1.26,2.65-1.64c1.04-0.38,2.19-0.58,3.45-0.58c0.54,0,1.08,0.06,1.62,0.19
                  c0.54,0.12,1.06,0.32,1.57,0.57c0.51,0.26,0.97,0.59,1.37,0.98c0.41,0.39,0.74,0.85,1.01,1.37h0.07v-2.7h2.64V293z M327.81,285.8
                  c0,0.81,0.15,1.56,0.44,2.25c0.29,0.69,0.7,1.28,1.2,1.79c0.51,0.51,1.1,0.91,1.77,1.2c0.68,0.29,1.4,0.44,2.16,0.44
                  c0.9,0,1.7-0.16,2.4-0.47c0.7-0.31,1.29-0.74,1.77-1.27c0.49-0.53,0.85-1.14,1.1-1.82c0.25-0.69,0.37-1.41,0.37-2.18
                  c0-0.86-0.14-1.64-0.41-2.35c-0.27-0.71-0.65-1.32-1.15-1.84c-0.49-0.52-1.09-0.92-1.79-1.2c-0.7-0.28-1.46-0.42-2.3-0.42
                  c-0.83,0-1.59,0.15-2.28,0.46c-0.69,0.31-1.27,0.72-1.76,1.25c-0.48,0.53-0.86,1.15-1.13,1.86
                  C327.95,284.2,327.81,284.97,327.81,285.8z"/>
              <path className="st0" fill="#892A51" d="M370.95,269.78h2.67l10.17,23.94h-3.31l-2.43-5.88h-11.96l-2.47,5.88h-3.21L370.95,269.78z M372.23,273.43
                  h-0.07l-4.97,11.76h9.77L372.23,273.43z"/>
              <path className="st0" fill="#892A51" d="M405.66,293c0,2.89-0.74,5.08-2.21,6.58c-1.48,1.5-3.61,2.25-6.41,2.25c-1.56,0-2.96-0.23-4.21-0.68
                  c-1.25-0.45-2.44-1.23-3.56-2.33l1.89-2.16c0.83,0.9,1.72,1.58,2.65,2.04c0.94,0.46,2.01,0.69,3.23,0.69
                  c1.17,0,2.15-0.17,2.92-0.52c0.78-0.35,1.39-0.82,1.84-1.42c0.45-0.6,0.77-1.28,0.95-2.04c0.18-0.77,0.27-1.57,0.27-2.4v-2.03
                  h-0.07c-0.63,1.01-1.45,1.76-2.46,2.23c-1.02,0.47-2.05,0.71-3.11,0.71c-1.24,0-2.38-0.2-3.42-0.61
                  c-1.04-0.41-1.92-0.97-2.67-1.69c-0.74-0.72-1.32-1.58-1.72-2.57c-0.41-0.99-0.61-2.07-0.61-3.25c0-1.29,0.2-2.45,0.61-3.48
                  c0.4-1.04,0.97-1.91,1.71-2.62c0.73-0.71,1.62-1.26,2.65-1.64c1.04-0.38,2.19-0.58,3.45-0.58c0.54,0,1.08,0.06,1.62,0.19
                  c0.54,0.12,1.06,0.32,1.57,0.57c0.51,0.26,0.97,0.59,1.37,0.98c0.41,0.39,0.74,0.85,1.01,1.37h0.07v-2.7h2.64V293z M391.81,285.8
                  c0,0.81,0.15,1.56,0.44,2.25c0.29,0.69,0.7,1.28,1.2,1.79c0.51,0.51,1.1,0.91,1.77,1.2c0.68,0.29,1.4,0.44,2.16,0.44
                  c0.9,0,1.7-0.16,2.4-0.47c0.7-0.31,1.29-0.74,1.77-1.27c0.49-0.53,0.85-1.14,1.1-1.82c0.25-0.69,0.37-1.41,0.37-2.18
                  c0-0.86-0.14-1.64-0.41-2.35c-0.27-0.71-0.65-1.32-1.15-1.84c-0.49-0.52-1.09-0.92-1.79-1.2c-0.7-0.28-1.46-0.42-2.3-0.42
                  c-0.84,0-1.59,0.15-2.28,0.46c-0.69,0.31-1.27,0.72-1.76,1.25c-0.48,0.53-0.86,1.15-1.13,1.86
                  C391.94,284.2,391.81,284.97,391.81,285.8z"/>
              <path className="st0" fill="#892A51" d="M428.05,290.84c-0.95,1.22-1.99,2.07-3.11,2.55c-1.13,0.49-2.43,0.73-3.92,0.73c-1.24,0-2.35-0.22-3.35-0.66
                  c-0.99-0.44-1.83-1.03-2.52-1.77c-0.69-0.74-1.21-1.62-1.59-2.64c-0.37-1.01-0.56-2.1-0.56-3.25c0-1.22,0.2-2.34,0.61-3.36
                  c0.4-1.03,0.97-1.91,1.69-2.64c0.72-0.73,1.58-1.3,2.57-1.71c0.99-0.41,2.07-0.61,3.25-0.61c1.1,0,2.12,0.19,3.04,0.56
                  c0.92,0.37,1.72,0.91,2.38,1.62c0.66,0.71,1.18,1.58,1.54,2.6c0.36,1.03,0.54,2.19,0.54,3.5v0.85h-12.78
                  c0.05,0.68,0.21,1.33,0.49,1.94c0.28,0.62,0.65,1.16,1.1,1.62c0.45,0.46,0.98,0.83,1.59,1.1c0.61,0.27,1.27,0.41,1.99,0.41
                  c1.15,0,2.12-0.2,2.91-0.61c0.79-0.41,1.5-1,2.13-1.79L428.05,290.84z M425.78,284.38c-0.05-1.35-0.49-2.43-1.32-3.25
                  c-0.83-0.81-1.98-1.22-3.45-1.22c-1.46,0-2.65,0.41-3.55,1.22c-0.9,0.81-1.44,1.89-1.62,3.25H425.78z"/>
              <path className="st0" fill="#892A51" d="M436.09,281.64c0-0.72-0.02-1.4-0.07-2.03c-0.05-0.63-0.07-1.21-0.07-1.72h2.5c0,0.43,0.01,0.86,0.04,1.29
                  c0.02,0.43,0.03,0.87,0.03,1.32h0.07c0.18-0.38,0.43-0.75,0.76-1.12c0.32-0.36,0.71-0.68,1.17-0.96
                  c0.45-0.28,0.96-0.51,1.52-0.68c0.56-0.17,1.17-0.25,1.82-0.25c1.04,0,1.93,0.16,2.69,0.47c0.76,0.32,1.38,0.75,1.88,1.32
                  c0.5,0.56,0.86,1.25,1.1,2.05c0.24,0.8,0.36,1.67,0.36,2.62v9.77h-2.64v-9.5c0-1.33-0.29-2.38-0.88-3.14
                  c-0.59-0.77-1.5-1.15-2.74-1.15c-0.86,0-1.59,0.15-2.21,0.44c-0.62,0.29-1.13,0.71-1.52,1.25c-0.39,0.54-0.69,1.18-0.88,1.93
                  c-0.19,0.74-0.29,1.57-0.29,2.47v7.71h-2.64V281.64z"/>
              <path className="st0" fill="#892A51" d="M469.52,281.85c-0.56-0.68-1.17-1.17-1.82-1.47c-0.66-0.3-1.38-0.46-2.16-0.46c-0.88,0-1.66,0.15-2.33,0.46
                  c-0.68,0.31-1.24,0.73-1.67,1.27c-0.44,0.54-0.77,1.17-1,1.88c-0.22,0.71-0.34,1.47-0.34,2.28c0,0.81,0.13,1.57,0.39,2.28
                  c0.26,0.71,0.62,1.34,1.08,1.88c0.46,0.54,1.02,0.96,1.67,1.27c0.66,0.31,1.39,0.46,2.2,0.46c1.74,0,3.08-0.65,4.02-1.96
                  l1.96,1.86c-0.76,0.88-1.67,1.52-2.71,1.93c-1.04,0.41-2.13,0.61-3.28,0.61c-1.22,0-2.33-0.2-3.35-0.61
                  c-1.01-0.4-1.88-0.98-2.59-1.72c-0.71-0.74-1.26-1.62-1.66-2.64c-0.39-1.01-0.59-2.13-0.59-3.35c0-1.19,0.2-2.3,0.59-3.31
                  c0.39-1.01,0.95-1.89,1.67-2.64c0.72-0.74,1.58-1.32,2.59-1.74c1-0.42,2.11-0.63,3.33-0.63c1.17,0,2.28,0.2,3.33,0.61
                  c1.05,0.41,1.97,1.04,2.75,1.89L469.52,281.85z"/>
              <path className="st0" fill="#892A51" d="M483.75,297.33c-0.27,0.68-0.55,1.29-0.83,1.84c-0.28,0.55-0.62,1.02-1.01,1.42
                  c-0.39,0.39-0.87,0.7-1.42,0.91c-0.55,0.21-1.22,0.32-2.01,0.32c-0.38,0-0.78-0.02-1.2-0.07c-0.42-0.05-0.81-0.16-1.17-0.34
                  l0.34-2.3c0.27,0.11,0.55,0.19,0.84,0.22c0.29,0.03,0.63,0.05,1.02,0.05c0.86,0,1.48-0.24,1.89-0.71
                  c0.41-0.47,0.76-1.11,1.05-1.89l1.08-2.98l-6.56-15.92h3.08l4.9,12.41h0.07l4.7-12.41h2.88L483.75,297.33z"/>
            </g>
            <g>
              <path className="st0" fill="#892A51" d="M340.61,167.12c0-14.91-4.82-26.64-14.74-35.85c-8.79-8.1-22.14-12.21-39.66-12.21h-6.39v96.14h6.39
                  c9.35,0,17.17-0.98,23.26-2.91c5.92-1.99,11.41-5.23,16.25-9.61C335.73,193.52,340.61,181.89,340.61,167.12z"/>
              <path className="st0" fill="#892A51" d="M195,236.56v-38.63h-60.87C145.31,220.43,168.3,236.01,195,236.56z"/>
              <path className="st0" fill="#892A51" d="M463.92,187.92c-2.2-2.49-5.04-4.82-8.53-7c-3.49-2.18-7.64-4.25-12.45-6.23l-18.55-7.36
                  c-26.31-10.6-39.47-26.1-39.47-46.5c0-0.57,0.02-1.13,0.04-1.7c-3.48,3.67-6.57,7.72-9.2,12.08
                  c-10.76-17.89-29.34-30.54-51-33.23c7.62,3.01,14.73,7.47,21.13,13.32c15.48,14.12,23.33,32.9,23.33,55.8
                  c0,22.99-8.18,41.87-24.31,56.12c-6.33,5.57-12.99,9.84-19.86,12.78c21.54-2.77,39.99-15.39,50.7-33.19
                  c0.73,1.22,1.51,2.4,2.32,3.56l-0.02,0.01c12.54,18.24,33.56,30.19,57.36,30.19c1.28,0,2.55-0.03,3.81-0.1v-0.01
                  c2.64-0.14,5.23-0.44,7.78-0.87c5.49-1.25,10.28-3.84,14.35-7.78c5.98-5.77,8.96-13.09,8.96-21.95c0-3.56-0.52-6.82-1.56-9.79
                  C467.73,193.14,466.11,190.41,463.92,187.92z"/>
              <path className="st0" fill="#892A51" d="M196.47,97.45c-38.42,0-69.57,31.15-69.57,69.57c0,1.06,0.03,2.1,0.08,3.15H195v-57.89h29.1v118.61
                  c10.79-4.68,20.16-12,27.29-21.16v-85.39C238.65,107.97,218.79,97.45,196.47,97.45z"/>
              <path className="st0" fill="#892A51" d="M504.89,163.3c-0.02-0.36-0.05-0.71-0.07-1.07c-0.06-0.93-0.14-1.85-0.24-2.77c-0.04-0.33-0.07-0.66-0.11-1
                  c-0.15-1.22-0.32-2.43-0.53-3.63c-0.01-0.03-0.01-0.06-0.02-0.09c-0.21-1.17-0.46-2.33-0.72-3.49c-0.07-0.29-0.14-0.58-0.21-0.87
                  c-0.24-0.97-0.5-1.93-0.77-2.88c-0.06-0.22-0.12-0.44-0.19-0.66c-0.72-2.38-1.56-4.7-2.52-6.96c-0.07-0.17-0.14-0.33-0.22-0.5
                  c-0.46-1.07-0.95-2.12-1.46-3.16c-0.03-0.05-0.05-0.1-0.08-0.16c-1.14-2.29-2.41-4.51-3.79-6.66c-0.02-0.03-0.04-0.07-0.07-0.1
                  c-9.66-14.95-24.9-25.97-42.78-30.09c-1.05-0.26-2.75-0.45-3.96-0.57c-1.49-0.16-3.06-0.24-4.71-0.24
                  c-8.05,0-14.73,2.18-20.04,6.53c-5.31,4.27-7.97,9.65-7.97,16.13c0,8.94,6.97,16.13,20.92,21.59l19.17,7.47
                  c15.6,6.01,27.02,13.35,34.24,22.01c5.5,6.6,8.9,14.34,10.21,23.21c3.87-8.66,6.03-18.24,6.03-28.33
                  C505,165.77,504.95,164.54,504.89,163.3z"/>
            </g>
          </g>
        </g>
      </svg>