<svg width="35" height="35" viewBox="0 0 35 35" fill="none" xmlns="http://www.w3.org/2000/svg">
<path d="M17.498 22.9658H17.499C19.7087 22.9629 21.9388 23.7637 23.6904 25.3467L24.0342 25.6738L29.2793 30.9189L25.667 34.5312L20.4219 29.2861L20.2666 29.1387C19.529 28.4721 18.6281 28.1251 17.6992 28.0791L17.499 28.0742H17.4971C16.4967 28.0776 15.5206 28.4247 14.7305 29.1387L14.5752 29.2861L9.33008 34.5312L5.71777 30.9189L10.9629 25.6738C12.6486 23.9865 14.8474 23.0805 17.0566 22.9766L17.498 22.9658ZM9.3252 10.9648H9.32617C11.0132 12.6506 11.9184 14.8503 12.0225 17.0596L12.0332 17.501V17.502C12.0361 19.7103 11.2352 21.9406 9.65234 23.6924L9.32617 24.0361H9.3252L4.08008 29.2803L0.467773 25.668L5.71289 20.4238L5.71387 20.4229C6.47501 19.6582 6.86886 18.6954 6.91797 17.7002L6.92383 17.501V17.499C6.92054 16.5004 6.57359 15.5227 5.86133 14.7324L5.71387 14.5771L5.71289 14.5762L0.46875 9.33105L4.08008 5.71973L9.3252 10.9648ZM34.5293 9.33008L29.2852 14.5762C28.5237 15.3393 28.1293 16.3025 28.0801 17.2988L28.0752 17.499V17.501C28.0785 18.4998 28.4253 19.4772 29.1377 20.2676L29.2852 20.4229V20.4238L34.5293 25.6689L30.9189 29.2803L25.6748 24.0352H25.6738C23.8745 22.2387 22.9637 19.8556 22.9668 17.5L22.9775 17.0576C23.0747 14.9956 23.8704 12.9427 25.3477 11.3076L25.6738 10.9639H25.6748L30.9189 5.71777L34.5293 9.33008ZM29.2793 4.08008L24.0342 9.32617C22.3485 11.0135 20.1508 11.9195 17.9404 12.0234L17.499 12.0342H17.498C15.2899 12.0371 13.0584 11.2362 11.3066 9.65332L10.9629 9.32617L5.7168 4.08008L9.32812 0.467773L14.5732 5.71387C15.3375 6.47488 16.3006 6.87144 17.2959 6.9209L17.4961 6.92578H17.498C18.4968 6.92245 19.4743 6.57539 20.2646 5.86133L20.4199 5.71387L25.666 0.466797L29.2793 4.08008Z" fill="#59585E" stroke="#59585E" stroke-width="0.662546"/>
</svg>
