<svg width="50" height="50" viewBox="0 0 50 50" fill="none" xmlns="http://www.w3.org/2000/svg">
<path d="M39.5833 20.041C39.5833 25.416 36.9374 29.5514 32.9124 32.2744C31.9749 32.9077 31.5062 33.2244 31.2749 33.5869C31.0458 33.9452 30.9645 34.4202 30.8083 35.366L30.6833 36.1014C30.4083 37.7639 30.2687 38.5952 29.6853 39.0889C29.102 39.5827 28.2603 39.5827 26.5749 39.5827H21.1333C19.4478 39.5827 18.6062 39.5827 18.0228 39.0889C17.4395 38.5952 17.302 37.7639 17.0228 36.1014L16.902 35.366C16.7437 34.4223 16.6666 33.9494 16.4374 33.591C16.2083 33.2327 15.7374 32.9119 14.7978 32.2702C10.8166 29.5473 8.33325 25.4139 8.33325 20.041C8.33325 11.2764 15.3291 4.16602 23.9583 4.16602C25.008 4.16491 26.0551 4.27102 27.0833 4.48269" stroke="#F06A6A" stroke-width="3.125" stroke-linecap="round" stroke-linejoin="round"/>
<path d="M28.125 39.5827V41.666C28.125 43.6306 28.125 44.6119 27.5145 45.2223C26.9041 45.8327 25.9229 45.8327 23.9583 45.8327C21.9937 45.8327 21.0125 45.8327 20.402 45.2223C19.7916 44.6119 19.7916 43.6306 19.7916 41.666V39.5827M34.375 4.16602L34.9125 5.6181C35.6166 7.52227 35.9687 8.47435 36.6625 9.1681C37.3583 9.86393 38.3104 10.216 40.2145 10.9202L41.6666 11.4577L40.2145 11.9952C38.3104 12.6993 37.3583 13.0514 36.6645 13.7452C35.9687 14.441 35.6166 15.3931 34.9125 17.2973L34.375 18.7494L33.8375 17.2973C33.1333 15.3931 32.7812 14.441 32.0875 13.7473C31.3916 13.0514 30.4395 12.6993 28.5354 11.9952L27.0833 11.4577L28.5354 10.9202C30.4395 10.216 31.3916 9.86393 32.0854 9.17018C32.7812 8.47435 33.1333 7.52227 33.8375 5.6181L34.375 4.16602Z" stroke="#F06A6A" stroke-width="3.125" stroke-linecap="round" stroke-linejoin="round"/>
</svg>
