<svg width="40" height="40" viewBox="0 0 40 40" fill="none" xmlns="http://www.w3.org/2000/svg">
<path d="M36.6588 22.5336C36.5713 21.532 35.7607 20.5227 34.4066 19.5826M36.6588 22.5336C36.7037 23.047 36.5559 23.5272 36.2381 23.9683C35.5944 24.8618 34.2533 25.5946 32.4043 26.1165C35.1661 25.337 36.7945 24.087 36.6588 22.5336ZM36.6588 22.5336C36.6404 22.3223 36.5897 22.1108 36.5086 21.8995C36.3629 21.5202 36.1189 21.1421 35.7864 20.7695C35.1929 20.1043 34.3175 19.4564 33.2155 18.8494M36.6588 22.5336C36.8176 24.351 34.5616 25.7531 30.9011 26.4725M34.4066 19.5826C31.4275 17.5143 25.8183 15.7808 19.4931 15.1998C10.2927 14.3547 3.06123 16.268 3.34124 19.4733M34.4066 19.5826C33.4755 18.9362 32.2875 18.3225 30.9011 17.7665C31.7518 18.1077 32.5277 18.4705 33.2155 18.8494M3.34124 19.4733C3.3597 19.6846 3.41034 19.8962 3.49147 20.1075C3.63715 20.4868 3.88114 20.8649 4.21367 21.2376C4.80714 21.9027 5.68262 22.5507 6.78459 23.1577M3.34124 19.4733C3.20554 17.9199 4.83411 16.6701 7.59591 15.8905C5.74684 16.4124 4.40569 17.1452 3.76197 18.0388C3.44423 18.4798 3.29639 18.9599 3.34124 19.4733ZM3.34124 19.4733C3.42874 20.475 4.23942 21.4843 5.59353 22.4245M6.78459 23.1577C7.47237 23.5365 8.24837 23.8994 9.0991 24.2406C7.71265 23.6845 6.52457 23.0708 5.59353 22.4245M6.78459 23.1577C8.36842 24.0301 10.4201 24.818 12.7748 25.4509M5.59353 22.4245C7.52208 23.7634 10.5529 24.9621 14.1667 25.7985M33.2155 18.8494C31.6317 17.977 29.58 17.1891 27.2252 16.5562" stroke="#326B62" stroke-width="2" stroke-linecap="round"/>
<path d="M25.4573 8.08468C25.8893 7.81205 26.3087 7.57592 26.7124 7.37877C28.1802 6.66186 29.4396 6.46042 30.3365 6.8941C30.7962 7.11637 31.1328 7.492 31.3524 7.99778C31.5575 8.47017 31.6605 9.0561 31.6664 9.73668M25.4573 8.08468C22.4334 9.99306 18.7938 13.6896 15.6365 18.3208C10.3984 26.0043 8.46764 33.3565 11.3133 34.765M25.4573 8.08468C24.8092 8.4937 24.1329 8.98488 23.439 9.54978M11.3133 34.765C11.3189 34.7677 11.3245 34.7705 11.3302 34.7732C11.5194 34.8647 11.7247 34.9279 11.9447 34.964C12.3398 35.0288 12.7822 35.0061 13.2635 34.9024C14.1226 34.7173 15.1058 34.2743 16.1656 33.6102C16.4136 33.4548 16.6658 33.2872 16.9216 33.1081C17.348 32.8095 17.7843 32.4785 18.2278 32.1175L20.1859 30.5264M11.3133 34.765C9.9371 34.0838 9.67814 32.0125 10.37 29.1858M31.2968 12.4814C31.5475 11.4573 31.6733 10.5323 31.6664 9.73668M31.6664 9.73668C31.6788 11.1636 31.2642 13.0067 30.4683 15.0916" stroke="#326B62" stroke-width="2" stroke-linecap="round"/>
<path d="M19.6078 23.8025C19.5849 22.2852 19.5735 21.5265 20.0518 21.2503C20.5302 20.9742 21.1815 21.3634 22.4841 22.1418L22.8211 22.3432C23.1913 22.5645 23.3763 22.6751 23.5802 22.7008C23.7841 22.7266 23.9837 22.6646 24.383 22.5406L24.7464 22.4278C26.1513 21.9915 26.8538 21.7734 27.276 22.1634C27.6983 22.5534 27.5607 23.2932 27.2855 24.7729L27.2143 25.1557C27.1361 25.5762 27.097 25.7864 27.1434 25.9918C27.1898 26.1972 27.3164 26.3744 27.5696 26.729L27.8002 27.0518C28.6913 28.2995 29.1369 28.9234 28.9195 29.4406C28.7021 29.9578 27.9657 30.0258 26.493 30.1618L26.112 30.197C25.6935 30.2357 25.4843 30.255 25.3091 30.3561C25.1338 30.4573 25.0125 30.6289 24.7698 30.972L24.5488 31.2843C23.6946 32.4917 23.2675 33.0954 22.7109 33.0251C22.1544 32.9547 21.8369 32.2569 21.2019 30.8613L21.0376 30.5003C20.8572 30.1037 20.7669 29.9054 20.6123 29.7625C20.4576 29.6197 20.256 29.5484 19.8527 29.4059L19.4856 29.2762C18.0666 28.7746 17.357 28.5239 17.2304 27.9632C17.1038 27.4025 17.6439 26.9033 18.7242 25.9047L19.0037 25.6464C19.3107 25.3626 19.4642 25.2207 19.5438 25.0313C19.6234 24.8418 19.6202 24.6262 19.6137 24.1951L19.6078 23.8025Z" stroke="#326B62" stroke-width="2"/>
</svg>
