<svg width="36" height="36" viewBox="0 0 36 36" fill="none" xmlns="http://www.w3.org/2000/svg">
<g clip-path="url(#clip0_777_1284)">
<path d="M34.6629 19.3252C34.409 22.5151 33.2449 25.565 31.3086 28.1127C29.3724 30.6604 26.7455 32.5988 23.7401 33.6975C20.7347 34.7962 17.477 35.0091 14.3542 34.3108C11.2313 33.6126 8.37456 32.0326 6.12325 29.7585C3.87194 27.4845 2.32073 24.612 1.65391 21.4823C0.987098 18.3525 1.23271 15.0972 2.36156 12.103C3.49041 9.10874 5.45506 6.50149 8.02209 4.59097C10.5891 2.68045 13.6506 1.54697 16.8429 1.3252" stroke="#552588" stroke-width="2.57143" stroke-linecap="round" stroke-linejoin="round"/>
<path d="M25.1743 20.8023C24.71 21.9975 23.955 23.0581 22.9778 23.8882C22.0005 24.7183 20.8317 25.2916 19.5772 25.5565C18.3226 25.8214 17.0218 25.7693 15.7924 25.4051C14.563 25.0409 13.4437 24.3759 12.5359 23.4704C11.6281 22.5649 10.9602 21.4474 10.5929 20.2189C10.2255 18.9905 10.1701 17.6898 10.4317 16.4346C10.6933 15.1793 11.2637 14.0091 12.0913 13.0297C12.9188 12.0503 13.9775 11.2926 15.1715 10.8252M18.0001 17.9994L24.4286 11.5709M24.4286 11.5709L29.5715 12.8566L34.7143 7.71373L29.5715 6.42801L28.2858 1.28516L23.1429 6.42801L24.4286 11.5709Z" stroke="#552588" stroke-width="2.57143" stroke-linecap="round" stroke-linejoin="round"/>
</g>
<defs>
<clipPath id="clip0_777_1284">
<rect width="36" height="36" fill="white"/>
</clipPath>
</defs>
</svg>
