<svg width="43" height="43" viewBox="0 0 43 43" fill="none" xmlns="http://www.w3.org/2000/svg">
<path d="M37.625 14.333C35.027 14.333 33.5758 16.913 34.167 18.8301L27.8066 25.2084C27.2691 25.0472 26.4808 25.0472 25.9433 25.2084L21.3745 20.6397C21.9837 18.7226 20.5325 16.1247 17.9166 16.1247C15.3187 16.1247 13.8495 18.7047 14.4587 20.6397L6.28871 28.7918C4.37163 28.2005 1.79163 29.6518 1.79163 32.2497C1.79163 34.2205 3.40413 35.833 5.37496 35.833C7.97288 35.833 9.42413 33.253 8.83288 31.3359L16.985 23.1659C17.5225 23.3272 18.3108 23.3272 18.8483 23.1659L23.417 27.7347C22.8079 29.6518 24.2591 32.2497 26.875 32.2497C29.4729 32.2497 30.942 29.6697 30.3329 27.7347L36.7112 21.3743C38.6283 21.9655 41.2083 20.5143 41.2083 17.9163C41.2083 15.9455 39.5958 14.333 37.625 14.333Z" fill="#932E52"/>
<path d="M26.875 16.125L28.5591 12.4162L32.25 10.75L28.5591 9.08375L26.875 5.375L25.2266 9.08375L21.5 10.75L25.2266 12.4162L26.875 16.125ZM6.27079 19.7083L7.16663 16.125L10.75 15.2292L7.16663 14.3333L6.27079 10.75L5.37496 14.3333L1.79163 15.2292L5.37496 16.125L6.27079 19.7083Z" fill="#932E52"/>
</svg>
